# Blender v2.71 (sub 0) OBJ File: 'Cavalier.blend'
# www.blender.org
mtllib Cavalier.mtl
o Circle
v -0.400000 0.000000 -0.692820
v -0.692820 0.000000 -0.400000
v -0.800000 0.000000 0.000000
v -0.692820 0.000000 0.400000
v -0.400000 0.000000 0.692820
v -0.400000 0.500000 -0.692820
v -0.692820 0.500000 -0.400000
v -0.800000 0.500000 0.000000
v -0.692820 0.500000 0.400000
v -0.400000 0.500000 0.692820
v -0.200000 0.600000 -0.346410
v -0.346410 0.600000 -0.200000
v -0.400000 0.600000 0.000000
v -0.346410 0.600000 0.200000
v -0.200000 0.600000 0.346410
v -0.200000 1.483049 -0.057476
v -0.200001 1.572142 0.058706
v -0.200001 1.693846 0.217414
v -0.200001 1.815549 0.376122
v -0.200001 1.904642 0.492305
v -0.200001 2.415392 0.159760
v -0.200001 2.268985 0.142230
v -0.200001 2.068990 0.116917
v -0.200001 1.868995 -0.160993
v -0.200000 1.063531 -0.509196
v -0.180000 0.886726 -0.311770
v -0.160000 1.223452 0.022871
v -0.180000 1.301325 -0.011771
v -0.180000 1.301325 0.299998
v -0.180000 1.223452 0.299999
v -0.180000 0.886726 -0.000000
v -0.180000 0.886726 -0.180000
v -0.180000 1.223452 0.139999
v -0.180000 1.301325 0.119998
v -0.180000 1.301325 0.611768
v -0.160000 1.223452 0.577127
v -0.180000 0.886726 0.311769
v -0.180000 1.301325 0.479998
v -0.180000 1.223452 0.459999
v -0.180000 0.886726 0.180000
v -0.200000 1.139921 -0.688533
v -0.200001 1.868995 -0.451326
v -0.200001 1.987121 -0.545058
v -0.200001 2.454821 -0.349445
v -0.200001 2.220971 -0.447251
v 0.000000 0.000000 -0.800000
v 0.400000 0.000000 -0.692820
v 0.692820 0.000000 -0.400000
v 0.800000 0.000000 0.000000
v 0.692820 0.000000 0.400000
v 0.400000 0.000000 0.692820
v 0.000000 0.000000 0.800000
v 0.000000 0.500000 -0.800000
v 0.400000 0.500000 -0.692820
v 0.692820 0.500000 -0.400000
v 0.800000 0.500000 0.000000
v 0.692820 0.500000 0.400000
v 0.400000 0.500000 0.692820
v 0.000000 0.500000 0.800000
v 0.000000 0.600000 -0.400000
v 0.200000 0.600000 -0.346410
v 0.346410 0.600000 -0.200000
v 0.400000 0.600000 0.000000
v 0.346410 0.600000 0.200000
v 0.200000 0.600000 0.346410
v 0.000000 0.600000 0.400000
v 0.000000 1.450439 -0.100002
v 0.200000 1.483049 -0.057476
v 0.200001 1.572142 0.058706
v 0.200001 1.693846 0.217414
v 0.200001 1.815549 0.376122
v 0.200001 1.904642 0.492305
v 0.000000 1.937253 0.534830
v 0.000000 2.468980 0.334635
v 0.200001 2.415392 0.159760
v 0.200001 2.268985 0.142230
v 0.200001 2.068990 0.116917
v 0.200001 1.868995 -0.160993
v 0.200000 1.063531 -0.509196
v 0.000000 1.009943 -0.509569
v 0.180000 0.886726 -0.311770
v 0.160000 1.223452 0.022871
v 0.180000 1.301325 -0.011771
v 0.000000 0.886726 0.360000
v 0.000000 1.223452 0.619999
v 0.000000 1.301325 0.659998
v 0.000000 1.301325 -0.060002
v 0.000000 1.223452 -0.020001
v 0.000000 0.886726 -0.360000
v 0.180000 1.301325 0.299998
v 0.180000 1.223452 0.299999
v 0.180000 0.886726 -0.000000
v 0.180000 0.886726 -0.180000
v 0.180000 1.223452 0.139999
v 0.180000 1.301325 0.119998
v 0.180000 1.301325 0.611768
v 0.160000 1.223452 0.577127
v 0.180000 0.886726 0.311769
v 0.180000 1.301325 0.479998
v 0.180000 1.223452 0.459999
v 0.180000 0.886726 0.180000
v 0.000000 1.086333 -0.688906
v 0.200000 1.139921 -0.688533
v 0.200001 1.868995 -0.451326
v 0.000000 1.868995 -0.451326
v 0.200001 1.987121 -0.545058
v 0.000000 1.987121 -0.545058
v 0.200001 2.454821 -0.349445
v 0.000000 2.507451 -0.349445
v 0.000000 2.220971 -0.447251
v 0.200001 2.220971 -0.447251
vt 0.435664 0.051875
vt 0.523375 0.000974
vt 0.624656 0.000000
vt 0.578612 0.738991
vt 0.628603 0.751229
vt 0.628603 0.935291
vt 0.628603 0.738991
vt 0.657295 0.738991
vt 0.657295 0.787406
vt 0.296974 0.801358
vt 0.296974 0.861372
vt 0.247764 0.874754
vt 0.296974 0.741345
vt 0.247330 0.802225
vt 0.429674 0.526591
vt 0.529305 0.474725
vt 0.529305 0.536084
vt 0.529305 0.413366
vt 0.408476 0.374610
vt 0.385024 0.455970
vt 0.049828 0.741345
vt 0.049828 0.907023
vt 0.000000 0.906905
vt 0.435664 0.325396
vt 0.385024 0.239180
vt 0.385024 0.139065
vt 0.578954 0.935817
vt 0.529305 0.936343
vt 0.657295 0.835821
vt 0.628603 0.835821
vt 0.197686 0.863104
vt 0.197686 0.803091
vt 0.197686 0.743078
vt 0.673586 0.577517
vt 0.673586 0.638876
vt 0.573955 0.587010
vt 0.673586 0.700235
vt 0.552758 0.738991
vt 0.542713 0.704658
vt 0.529305 0.657630
vt 0.099656 0.783556
vt 0.099656 0.906905
vt 0.712367 0.049214
vt 0.763008 0.135430
vt 0.763008 0.235545
vt 0.628603 0.787406
vt 0.247330 0.742211
vt 0.496406 0.553709
vt 0.398431 0.408943
vt 0.000000 0.783556
vt 0.712367 0.322735
vt 0.624656 0.373636
vt 0.523375 0.374610
vt 0.529305 0.752281
vt 0.640687 0.559892
vt 0.809660 0.445724
vt 0.934225 0.445727
vt 0.934019 0.542641
vt 0.809454 0.542637
vt 0.934225 0.639386
vt 0.809660 0.639383
vt 0.934789 0.710040
vt 0.940005 0.801171
vt 0.816656 0.802774
vt 0.809454 0.711643
vt 0.197686 0.993733
vt 0.197686 0.874754
vt 0.294697 0.881022
vt 0.810223 0.374610
vt 0.934789 0.374613
vt 0.051583 0.050121
vt 0.121825 0.118649
vt 0.096034 0.162056
vt 0.385024 0.136943
vt 0.288545 0.162060
vt 0.262754 0.118652
vt 0.000000 0.136935
vt 0.096034 0.212179
vt 0.244095 0.000002
vt 0.333440 0.050127
vt 0.140928 0.000000
vt 0.218081 0.093590
vt 0.166498 0.093589
vt 0.064055 0.572900
vt 0.105998 0.588320
vt 0.052145 0.670072
vt 0.033350 0.561612
vt 0.025894 0.628923
vt 0.898875 0.163321
vt 0.941062 0.159944
vt 0.949262 0.316423
vt 0.936102 0.556680
vt 0.979819 0.558363
vt 0.986892 0.599488
vt 0.147941 0.603739
vt 0.178645 0.615027
vt 0.097614 0.741345
vt 0.078396 0.711222
vt 0.724810 0.563026
vt 0.809454 0.527980
vt 0.782676 0.738796
vt 0.146277 0.751178
vt 0.140794 0.885423
vt 0.099656 0.875480
vt 0.099656 0.996393
vt 0.099656 0.908929
vt 0.144793 0.885423
vt 0.706061 0.518170
vt 0.687312 0.473315
vt 0.794755 0.407321
vt 0.673586 0.440478
vt 0.809454 0.374610
vt 0.774969 0.452173
vt 0.973648 0.541446
vt 0.939397 0.444607
vt 0.983114 0.446290
vt 0.942369 0.142576
vt 0.909472 0.073675
vt 0.951659 0.070298
vt 0.051312 0.386369
vt 0.030704 0.453335
vt 0.000000 0.442047
vt 0.072647 0.468754
vt 0.112864 0.570689
vt 0.075581 0.556983
vt 0.986892 0.376480
vt 0.948648 0.000278
vt 0.097911 0.403393
vt 0.347067 0.789760
vt 0.344528 0.838175
vt 0.296974 0.838175
vt 0.144518 0.420635
vt 0.178645 0.433473
vt 0.145294 0.495462
vt 0.114590 0.484174
vt 0.177440 0.594470
vt 0.150146 0.584395
vt 0.480840 0.738682
vt 0.798152 0.835541
vt 0.798358 0.932455
vt 0.673793 0.932458
vt 0.798358 0.738796
vt 0.673586 0.835544
vt 0.394643 0.816018
vt 0.385024 0.738991
vt 0.507408 0.742882
vt 0.816656 0.902568
vt 0.394643 0.914763
vt 0.517027 0.819908
vt 0.809454 0.984285
vt 0.940005 0.900965
vt 0.121825 0.255587
vt 0.166498 0.280650
vt 0.140929 0.374121
vt 0.288545 0.212183
vt 0.051583 0.323997
vt 0.333440 0.324003
vt 0.262754 0.255590
vt 0.218081 0.280651
vt 0.242700 0.542569
vt 0.204539 0.486546
vt 0.230790 0.445397
vt 0.211995 0.553857
vt 0.185321 0.516670
vt 0.987279 0.159694
vt 1.000000 0.307970
vt 0.943300 0.753914
vt 0.941520 0.720237
vt 0.991807 0.710040
vt 0.326585 0.511730
vt 0.257041 0.404247
vt 0.276259 0.374124
vt 0.284643 0.527149
vt 0.872097 0.000000
vt 0.898875 0.210815
vt 0.814231 0.175770
vt 0.197686 0.882733
vt 0.195354 0.887038
vt 0.195354 0.974502
vt 0.795482 0.220625
vt 0.864390 0.286623
vt 0.884176 0.331474
vt 0.776733 0.265481
vt 0.898875 0.364186
vt 0.988951 0.751271
vt 0.985192 0.768295
vt 0.940005 0.865986
vt 0.944613 0.770643
vt 0.997876 0.070048
vt 0.983451 0.142354
vt 0.178645 0.673422
vt 0.209349 0.662134
vt 0.229957 0.729100
vt 0.254226 0.558486
vt 0.291508 0.544780
vt 0.985656 0.863344
vt 0.991807 0.933048
vt 0.226935 0.568479
vt 0.251292 0.646714
vt 0.276556 0.712075
vt 0.299513 0.789760
vt 0.323163 0.694834
vt 0.293235 0.631295
vt 0.323939 0.620007
vt 0.328791 0.531073
vt 0.356085 0.520999
vt 0.357290 0.500442
vt 0.625121 0.374919
vt 0.810223 0.710037
vt 0.932803 0.710040
vt 0.294697 1.000000
vt 0.000000 0.237181
vt 0.006677 0.598799
vt 0.901773 0.312001
vt 0.937882 0.590357
vt 0.738535 0.595862
vt 0.099656 0.741345
vt 0.147855 0.978828
vt 0.934789 0.539950
vt 0.904870 0.145578
vt 0.017207 0.374124
vt 0.048290 0.546990
vt 0.938318 0.374610
vt 0.901774 0.004030
vt 0.432276 0.738991
vt 0.673793 0.738799
vt 0.517027 0.918654
vt 0.932803 0.982683
vt 0.385024 0.237188
vt 0.244095 0.374124
vt 0.827956 0.142933
vt 0.197686 0.748598
vt 0.763008 0.298317
vt 0.195852 0.741345
vt 0.941084 0.935984
vt 1.000000 0.000000
vt 0.344528 0.741345
vt 0.357290 0.681995
vt 0.576558 0.374610
vn 0.000000 -1.000000 0.000000
vn 0.080900 0.308400 -0.947800
vn 0.000000 -0.621600 -0.783400
vn -0.101000 0.383900 -0.917800
vn 0.000000 0.385900 -0.922600
vn -1.000000 0.000000 0.000000
vn -0.254100 0.965600 0.054300
vn 0.000000 0.290500 -0.956900
vn 0.101000 0.383900 -0.917800
vn 1.000000 0.000000 0.000000
vn 0.317300 0.945500 0.073200
vn 0.000000 0.323100 -0.946400
vn -0.317300 0.945500 0.073200
vn -0.080900 0.308400 -0.947800
vn 0.254100 0.965600 0.054300
vn -0.965900 0.000000 0.258800
vn -0.965900 0.000000 -0.258800
vn -0.707100 0.000000 -0.707100
vn -0.258800 0.000000 0.965900
vn -0.258800 0.000000 -0.965900
vn -0.707100 0.000000 0.707100
vn -0.177200 0.968100 -0.177200
vn -0.064900 0.968100 0.242000
vn -0.064900 0.968100 -0.242000
vn -0.177200 0.968100 0.177200
vn -0.242000 0.968100 0.064900
vn -0.242000 0.968100 -0.064900
vn -0.998700 -0.050900 0.000000
vn -0.997300 -0.073700 -0.000000
vn -0.254300 0.186800 0.948900
vn -0.249800 -0.261900 -0.932200
vn -0.999500 -0.033100 0.000000
vn -0.999200 -0.038900 -0.000000
vn -0.674100 0.260300 0.691200
vn -0.191500 -0.719200 0.667900
vn -0.231800 -0.444500 -0.865300
vn -0.185300 0.698200 -0.691500
vn -0.231900 -0.444500 0.865300
vn -0.207500 -0.597900 0.774300
vn -0.864900 0.502000 -0.000000
vn -0.256500 0.133500 -0.957300
vn -0.256500 0.133500 0.957300
vn -0.793400 0.608700 0.000000
vn -0.240000 -0.893100 -0.380400
vn -0.700800 0.133500 0.700800
vn -0.998200 0.059300 0.000000
vn -0.936600 -0.311700 0.159900
vn -0.836000 0.500800 0.224000
vn 0.965900 0.000000 0.258800
vn 0.965900 0.000000 -0.258800
vn 0.707100 0.000000 -0.707100
vn 0.258800 0.000000 0.965900
vn 0.258800 0.000000 -0.965900
vn 0.707100 0.000000 0.707100
vn 0.177200 0.968100 -0.177200
vn 0.064900 0.968100 0.242000
vn 0.064900 0.968100 -0.242000
vn 0.177200 0.968100 0.177200
vn 0.242000 0.968100 0.064900
vn 0.242000 0.968100 -0.064900
vn 0.996900 -0.062700 0.048100
vn 0.993300 -0.091600 0.070300
vn 0.232700 0.181500 0.955500
vn 0.240400 -0.251500 -0.937500
vn 0.999100 -0.033600 0.025800
vn 0.998500 -0.043800 0.033600
vn 0.674100 0.260300 0.691200
vn 0.191500 -0.719200 0.667900
vn 0.231800 -0.444500 -0.865300
vn 0.185300 0.698200 -0.691500
vn 0.231900 -0.444500 0.865300
vn 0.207500 -0.597900 0.774300
vn 0.864900 0.502000 -0.000000
vn 0.256500 0.133500 -0.957300
vn 0.961500 0.220300 -0.164200
vn 0.256500 0.133500 0.957300
vn 0.793400 0.608700 0.000000
vn 0.240000 -0.893100 -0.380400
vn 0.976200 -0.138600 0.166700
vn -0.996900 -0.062700 0.048100
vn -0.993300 -0.091600 0.070300
vn -0.232700 0.181500 0.955500
vn -0.240400 -0.251500 -0.937500
vn -0.999100 -0.033600 0.025800
vn -0.998500 -0.043800 0.033600
vn -0.258100 0.527100 0.809600
vn 0.044600 -0.680200 0.731600
vn -0.700800 0.133500 -0.700800
vn -0.936600 -0.311700 -0.159900
vn -0.961500 0.220300 -0.164200
vn -0.836000 0.500800 -0.224000
vn -0.976200 -0.138600 0.166700
vn 0.998700 -0.050900 0.000000
vn 0.997300 -0.073700 -0.000000
vn 0.254300 0.186800 0.948900
vn 0.249800 -0.261900 -0.932200
vn 0.999500 -0.033100 0.000000
vn 0.999200 -0.038900 -0.000000
vn 0.258100 0.527100 0.809600
vn -0.044600 -0.680200 0.731600
vn 0.700800 0.133500 -0.700800
vn 0.936600 -0.311700 -0.159900
vn 0.836000 0.500800 -0.224000
vn 0.700800 0.133500 0.700800
vn 0.998200 0.059300 0.000000
vn 0.936600 -0.311700 0.159900
vn 0.836000 0.500800 0.224000
usemtl Material.001
s off
f 5/1/1 4/2/1 3/3/1
f 102/4/2 41/5/2 42/6/2
f 42/7/3 43/8/3 107/9/3
f 45/10/4 44/11/4 109/12/4
f 43/13/5 45/10/5 110/14/5
f 24/15/6 45/16/6 43/17/6
f 44/18/6 45/16/6 24/15/6
f 21/19/6 44/18/6 23/20/6
f 74/21/7 109/22/7 44/23/7
f 50/24/1 51/25/1 52/26/1
f 102/4/8 105/27/8 104/28/8
f 107/9/3 106/29/3 104/30/3
f 109/12/9 108/31/9 111/32/9
f 110/14/5 111/32/5 106/33/5
f 106/34/10 111/35/10 78/36/10
f 78/36/10 111/35/10 108/37/10
f 75/38/10 76/39/10 77/40/10
f 74/21/11 75/41/11 108/42/11
f 2/43/1 1/44/1 46/45/1
f 5/1/1 2/43/1 52/26/1
f 2/43/1 46/45/1 52/26/1
f 5/1/1 3/3/1 2/43/1
f 105/27/8 102/4/8 42/6/8
f 105/46/3 42/7/3 107/9/3
f 110/14/12 45/10/12 109/12/12
f 107/47/5 43/13/5 110/14/5
f 42/48/6 24/15/6 43/17/6
f 23/20/6 44/18/6 24/15/6
f 22/49/6 21/19/6 23/20/6
f 21/50/13 74/21/13 44/23/13
f 46/45/1 47/51/1 48/52/1
f 48/52/1 49/53/1 50/24/1
f 52/26/1 46/45/1 48/52/1
f 48/52/1 50/24/1 52/26/1
f 103/54/14 102/4/14 104/28/14
f 105/46/3 107/9/3 104/30/3
f 110/14/12 109/12/12 111/32/12
f 107/47/5 110/14/5 106/33/5
f 104/55/10 106/34/10 78/36/10
f 77/40/10 78/36/10 108/37/10
f 108/37/10 75/38/10 77/40/10
f 109/22/15 74/21/15 108/42/15
usemtl Material.001_tourtest.png
f 4/56/16 9/57/16 8/58/16
f 3/59/17 8/58/17 7/60/17
f 2/61/18 7/60/18 6/62/18
f 52/63/19 59/64/19 10/65/19
f 1/66/20 6/67/20 53/68/20
f 5/69/21 10/70/21 9/57/21
f 7/71/22 12/72/22 11/73/22
f 59/74/23 66/75/23 15/76/23
f 6/77/24 11/73/24 60/78/24
f 9/79/25 10/80/25 15/76/25
f 8/81/26 9/79/26 14/82/26
f 7/71/27 8/81/27 13/83/27
f 34/84/28 29/85/28 18/86/28
f 28/87/29 34/84/29 17/88/29
f 35/89/30 86/90/30 73/91/30
f 87/92/31 28/93/31 16/94/31
f 38/95/32 35/96/32 20/97/32
f 29/85/33 38/95/33 19/98/33
f 17/99/6 24/100/6 25/101/6
f 73/102/34 74/103/34 21/104/34
f 16/105/35 25/106/35 80/107/35
f 18/108/6 19/109/6 22/110/6
f 19/109/6 20/111/6 21/112/6
f 17/99/6 18/108/6 23/113/6
f 27/114/36 28/93/36 87/92/36
f 89/115/37 26/116/37 27/114/37
f 85/117/38 86/90/38 35/89/38
f 37/118/39 84/119/39 85/117/39
f 12/120/40 32/121/40 26/122/40
f 32/121/6 31/123/6 30/124/6
f 33/125/6 34/84/6 28/87/6
f 11/126/41 26/116/41 89/115/41
f 26/122/6 32/121/6 33/125/6
f 30/124/6 29/85/6 34/84/6
f 66/127/42 84/119/42 37/118/42
f 13/128/43 31/123/43 32/121/43
f 80/129/44 25/130/44 41/131/44
f 14/132/45 15/133/45 37/134/45
f 40/135/46 37/134/46 36/136/46
f 39/137/47 36/136/47 35/96/47
f 13/128/48 14/132/48 40/135/48
f 31/123/6 40/135/6 39/137/6
f 30/124/6 39/137/6 38/95/6
f 24/15/6 42/48/6 41/138/6
f 56/139/49 57/140/49 50/141/49
f 55/142/50 56/139/50 49/143/50
f 54/144/51 55/145/51 48/146/51
f 58/147/52 59/64/52 52/63/52
f 53/148/53 54/144/53 47/149/53
f 57/150/54 58/147/54 51/151/54
f 61/152/55 62/153/55 55/154/55
f 65/155/56 66/75/56 59/74/56
f 60/78/57 61/152/57 54/156/57
f 57/157/58 64/158/58 65/155/58
f 63/159/59 64/158/59 57/157/59
f 55/154/60 62/153/60 63/159/60
f 95/160/61 69/161/61 70/162/61
f 83/163/62 68/164/62 69/161/62
f 96/165/63 72/166/63 73/91/63
f 87/167/64 67/168/64 68/169/64
f 99/170/65 71/171/65 72/172/65
f 90/173/66 70/162/66 71/171/66
f 79/174/10 78/175/10 69/176/10
f 75/177/67 74/103/67 73/102/67
f 80/107/68 79/178/68 68/179/68
f 70/180/10 77/181/10 76/182/10
f 71/183/10 76/182/10 75/184/10
f 69/176/10 78/175/10 77/181/10
f 87/167/69 83/185/69 82/186/69
f 89/187/70 88/188/70 82/186/70
f 96/165/71 86/90/71 85/117/71
f 98/189/72 97/190/72 85/117/72
f 81/191/73 93/192/73 62/193/73
f 93/192/10 94/194/10 91/195/10
f 83/163/10 95/160/10 94/194/10
f 89/187/74 81/196/74 61/197/74
f 81/191/75 82/198/75 94/194/75
f 95/160/10 90/173/10 91/195/10
f 98/189/76 84/119/76 66/127/76
f 93/192/77 92/199/77 63/200/77
f 80/129/78 102/201/78 103/13/78
f 64/202/73 101/203/73 98/204/73
f 101/203/79 100/205/79 97/206/79
f 100/205/10 99/170/10 96/207/10
f 63/200/77 92/199/77 101/203/77
f 92/199/10 91/195/10 100/205/10
f 91/195/10 90/173/10 99/170/10
f 103/208/10 104/55/10 78/36/10
f 3/59/16 4/56/16 8/58/16
f 2/61/17 3/59/17 7/60/17
f 1/209/18 2/61/18 6/62/18
f 5/210/19 52/63/19 10/65/19
f 46/211/20 1/66/20 53/68/20
f 4/56/21 5/69/21 9/57/21
f 6/77/22 7/71/22 11/73/22
f 10/80/23 59/74/23 15/76/23
f 53/212/24 6/77/24 60/78/24
f 14/82/25 9/79/25 15/76/25
f 13/83/26 8/81/26 14/82/26
f 12/72/27 7/71/27 13/83/27
f 17/88/80 34/84/80 18/86/80
f 16/213/81 28/87/81 17/88/81
f 20/214/82 35/89/82 73/91/82
f 67/215/83 87/92/83 16/94/83
f 19/98/84 38/95/84 20/97/84
f 18/86/85 29/85/85 19/98/85
f 16/216/10 17/99/10 25/101/10
f 20/217/86 73/102/86 21/104/86
f 67/218/87 16/105/87 80/107/87
f 23/113/6 18/108/6 22/110/6
f 22/110/6 19/109/6 21/112/6
f 24/100/6 17/99/6 23/113/6
f 88/219/36 27/114/36 87/92/36
f 88/219/37 89/115/37 27/114/37
f 36/220/38 85/117/38 35/89/38
f 36/220/39 37/118/39 85/117/39
f 11/221/88 12/120/88 26/122/88
f 33/125/6 32/121/6 30/124/6
f 27/222/89 33/125/89 28/87/89
f 60/223/41 11/126/41 89/115/41
f 27/222/90 26/122/90 33/125/90
f 33/125/6 30/124/6 34/84/6
f 15/224/42 66/127/42 37/118/42
f 12/120/91 13/128/91 32/121/91
f 102/201/44 80/129/44 41/131/44
f 40/135/40 14/132/40 37/134/40
f 39/137/92 40/135/92 36/136/92
f 38/95/6 39/137/6 35/96/6
f 31/123/43 13/128/43 40/135/43
f 30/124/6 31/123/6 39/137/6
f 29/85/6 30/124/6 38/95/6
f 25/225/6 24/15/6 41/138/6
f 49/143/49 56/139/49 50/141/49
f 48/226/50 55/142/50 49/143/50
f 47/149/51 54/144/51 48/146/51
f 51/151/52 58/147/52 52/63/52
f 46/227/53 53/148/53 47/149/53
f 50/228/54 57/150/54 51/151/54
f 54/156/55 61/152/55 55/154/55
f 58/229/56 65/155/56 59/74/56
f 53/212/57 60/78/57 54/156/57
f 58/229/58 57/157/58 65/155/58
f 56/230/59 63/159/59 57/157/59
f 56/230/60 55/154/60 63/159/60
f 90/173/93 95/160/93 70/162/93
f 95/160/94 83/163/94 69/161/94
f 86/90/95 96/165/95 73/91/95
f 83/185/96 87/167/96 68/169/96
f 96/207/97 99/170/97 72/172/97
f 99/170/98 90/173/98 71/171/98
f 68/231/6 79/174/6 69/176/6
f 72/232/99 75/177/99 73/102/99
f 67/218/100 80/107/100 68/179/100
f 71/183/10 70/180/10 76/182/10
f 72/233/10 71/183/10 75/184/10
f 70/180/10 69/176/10 77/181/10
f 88/188/69 87/167/69 82/186/69
f 81/196/70 89/187/70 82/186/70
f 97/190/71 96/165/71 85/117/71
f 84/119/72 98/189/72 85/117/72
f 61/234/101 81/191/101 62/193/101
f 92/199/10 93/192/10 91/195/10
f 82/198/102 83/163/102 94/194/102
f 60/235/74 89/187/74 61/197/74
f 93/192/10 81/191/10 94/194/10
f 94/194/10 95/160/10 91/195/10
f 65/236/76 98/189/76 66/127/76
f 62/193/103 93/192/103 63/200/103
f 79/237/78 80/129/78 103/13/78
f 65/238/104 64/202/104 98/204/104
f 98/204/105 101/203/105 97/206/105
f 97/206/106 100/205/106 96/207/106
f 64/202/107 63/200/107 101/203/107
f 101/203/10 92/199/10 100/205/10
f 100/205/10 91/195/10 99/170/10
f 79/239/10 103/208/10 78/36/10
FIN