# Blender v2.71 (sub 0) OBJ File: ''
# www.blender.org
mtllib PieceBasique.mtl
o Plane
v -0.800000 0.000000 0.800000
v 0.800000 0.000000 0.800000
v -0.800000 0.000000 -0.800000
v 0.800000 0.000000 -0.800000
v -0.800000 2.403335 0.800000
v 0.800000 2.403335 0.800000
v -0.800000 2.403335 -0.800000
v 0.800000 2.403335 -0.800000
vt 0.666667 0.832871
vt 0.666667 0.500000
vt 1.000000 0.500000
vt 0.333333 0.500000
vt 0.333333 0.000000
vt 0.666667 0.000000
vt 0.000000 0.500000
vt 0.000000 0.000000
vt 0.333333 1.000000
vt 0.000000 1.000000
vt 1.000000 0.000000
vt 1.000000 0.832871
vt 0.333333 0.832871
vn 0.000000 -1.000000 0.000000
vn 0.000000 1.000000 0.000000
vn -1.000000 0.000000 0.000000
vn 0.000000 0.000000 -1.000000
vn 1.000000 0.000000 0.000000
vn 0.000000 0.000000 1.000000
usemtl None
s off
f 3/1/1 4/2/1 2/3/1
f 6/4/2 8/2/2 7/1/2
f 1/4/3 5/5/3 7/6/3
f 3/7/4 7/8/4 8/5/4
f 4/4/5 8/9/5 6/10/5
f 2/2/6 6/6/6 5/11/6
f 1/12/1 3/1/1 2/3/1
f 5/13/2 6/4/2 7/1/2
f 3/2/3 1/4/3 7/6/3
f 4/4/4 3/7/4 8/5/4
f 2/7/5 4/4/5 6/10/5
f 1/3/6 2/2/6 5/11/6
FIN