# Blender v2.71 (sub 0) OBJ File: ''
# www.blender.org
mtllib Sword.mtl
o Cube
v 0.132587 1.086652 -4.801709
v 0.132588 0.033275 10.869336
v 0.132588 1.375012 18.304430
v 0.132587 1.804816 -5.802082
v 0.132588 1.033275 10.869336
v 0.356217 0.033275 18.304430
v 0.356217 1.033275 18.304430
v 0.132587 0.709717 -3.984141
v 0.132583 0.427218 -3.145548
v 0.132583 0.136434 -2.083895
v 0.132588 0.033275 -1.326231
v 0.302515 -0.084367 18.304430
v 0.302515 -0.084367 10.869336
v 0.132587 1.431539 -3.820384
v 0.132583 1.206375 -2.898364
v 0.132583 1.071726 -1.988424
v 0.132588 1.033275 -1.326231
v 0.356217 1.033275 10.869336
v 0.356217 0.033275 10.869336
v 0.132588 1.375012 10.869336
v -0.132587 1.086652 -4.801709
v -0.132588 0.033275 10.869336
v -0.132588 1.375012 18.304430
v 0.000000 1.375012 18.304430
v -0.132587 1.804816 -5.802082
v -0.132588 1.033275 10.869336
v -0.356217 0.033275 18.304430
v -0.356217 1.033275 18.304430
v 0.000000 0.906096 -4.830873
v 0.000000 -0.149621 10.869336
v 0.000000 1.872616 -6.235399
v 0.000000 1.033275 10.869336
v -0.132587 0.709717 -3.984141
v -0.132583 0.427218 -3.145548
v -0.132583 0.136434 -2.083895
v -0.132588 0.033275 -1.326231
v -0.302515 -0.084367 18.304430
v 0.000000 -0.267262 18.304430
v 0.000000 -0.267262 10.869336
v -0.302515 -0.084367 10.869336
v -0.132587 1.431539 -3.820384
v -0.132583 1.206375 -2.898364
v -0.132583 1.071726 -1.988424
v -0.132588 1.033275 -1.326231
v -0.356217 1.033275 10.869336
v -0.356217 0.033275 10.869336
v 0.000000 1.375012 10.869336
v -0.132588 1.375012 10.869336
v 0.000000 -0.149621 -1.326231
v 0.000000 -0.045582 -2.101808
v 0.000000 0.252611 -3.199982
v 0.000000 0.529162 -4.013307
v 0.000000 1.431539 -3.820385
v 0.000000 1.206375 -2.898365
v 0.000000 1.071726 -1.988425
v 0.000000 1.033275 -1.326231
v 0.000000 1.050514 18.297768
v 0.000000 0.094205 18.302433
vt 0.283797 0.287745
vt 0.427374 0.996626
vt 0.187457 0.999478
vt 0.143577 1.000000
vt 0.000000 0.291119
vt 0.761247 0.705740
vt 0.774300 0.000045
vt 0.806000 0.000000
vt 0.946272 0.171260
vt 0.914424 0.171260
vt 0.914424 0.102420
vt 0.255686 0.085577
vt 0.212025 0.084396
vt 0.427374 0.000000
vt 0.946272 0.113064
vt 0.987090 0.106218
vt 0.999990 0.113064
vt 0.761247 0.000000
vt 0.761247 0.432693
vt 0.730893 0.432693
vt 0.806000 0.430235
vt 0.882576 0.000946
vt 0.496173 0.000000
vt 0.496173 0.432693
vt 0.427374 0.432693
vt 0.946272 0.191148
vt 0.914424 0.191148
vt 0.914424 0.095574
vt 0.416209 0.025380
vt 0.349984 0.141634
vt 0.174879 0.134174
vt 0.306818 0.195869
vt 0.116975 0.183724
vt 0.285226 0.249145
vt 0.059710 0.246263
vt 0.043880 0.290597
vt 0.730893 0.000000
vt 0.914424 0.000000
vt 0.914424 0.432693
vt 0.882576 0.432693
vt 0.999990 0.171260
vt 0.131217 0.132994
vt 0.074443 0.181058
vt 0.015830 0.245741
vt 0.775404 0.995004
vt 0.767788 0.852529
vt 0.799488 0.852484
vt 0.763567 0.797782
vt 0.795267 0.797737
vt 0.761427 0.744295
vt 0.793127 0.744250
vt 0.792947 0.705694
vt 0.999983 0.095574
vt 0.968136 0.095573
vt 0.914424 0.075685
vt 1.000000 0.000000
vt 1.000000 0.021036
vt 0.927334 0.010643
vt 0.914434 0.017489
vt 1.000000 0.076689
vt 0.882576 0.431181
vt 0.882576 0.000000
vt 0.806000 0.969465
vn 1.000000 0.000000 0.000000
vn 0.809600 -0.586900 0.000000
vn 0.000000 1.000000 0.000000
vn 0.000000 0.000000 1.000000
vn 0.780000 -0.515500 -0.354700
vn -0.909700 0.415300 0.000000
vn -0.517400 0.855800 0.000000
vn -0.836800 -0.547600 0.000000
vn -1.000000 -0.000000 0.000000
vn 0.000000 -1.000000 0.000000
vn 0.799000 -0.546100 -0.251800
vn 0.809600 -0.556300 -0.187400
vn 0.805600 -0.571400 -0.156500
vn 0.807100 -0.585100 -0.079700
vn -0.000000 0.983700 0.179700
vn 0.000000 0.971500 0.237200
vn 0.000000 0.989200 0.146400
vn 0.000000 0.998300 0.058000
vn 0.000000 0.000000 -1.000000
vn 0.003300 -0.005500 -1.000000
vn 0.005200 -0.002400 -1.000000
vn 0.004800 -0.004900 -1.000000
vn -0.809600 -0.586900 0.000000
vn -0.780000 -0.515500 -0.354700
vn 0.909700 0.415300 0.000000
vn 0.517400 0.855800 0.000000
vn 0.836800 -0.547600 0.000000
vn -0.799000 -0.546100 -0.251800
vn -0.805700 -0.560800 -0.190700
vn -0.809500 -0.566700 -0.153900
vn -0.809500 -0.581900 -0.078100
vn -0.019700 0.020500 -0.999600
vn -0.003300 -0.005500 -1.000000
vn -0.005200 -0.002400 -1.000000
vn -0.004800 -0.004900 -1.000000
vn 0.830400 -0.452600 -0.324900
vn 0.805700 -0.560800 -0.190700
vn 0.809500 -0.566700 -0.153900
vn 0.809500 -0.581900 -0.078100
vn -0.101900 0.977600 0.184100
vn 0.019700 0.020500 -0.999600
vn 0.018700 0.000000 -0.999800
vn -0.830400 -0.452600 -0.324900
vn -0.809600 -0.556300 -0.187400
vn -0.805600 -0.571400 -0.156500
vn -0.807100 -0.585100 -0.079700
vn 0.101900 0.977600 0.184100
vn -0.018700 0.000000 -0.999800
usemtl Material
s off
f 17/1/1 5/2/1 2/3/1
f 2/3/2 30/4/2 49/5/2
f 56/6/3 32/7/3 5/8/3
f 5/9/4 32/10/4 30/11/4
f 1/12/5 29/13/5 31/14/5
f 2/15/4 13/16/4 19/17/4
f 13/18/6 12/19/6 6/20/6
f 39/21/7 38/8/7 12/22/7
f 18/23/8 7/24/8 3/25/8
f 5/9/4 20/26/4 47/27/4
f 5/9/4 2/15/4 19/17/4
f 2/15/4 30/11/4 39/28/4
f 4/29/1 14/30/1 8/31/1
f 14/30/1 15/32/1 9/33/1
f 15/32/1 16/34/1 10/35/1
f 16/34/1 17/1/1 11/36/1
f 19/37/9 6/20/9 7/24/9
f 20/38/10 3/39/10 24/40/10
f 5/9/4 18/41/4 20/26/4
f 1/12/11 8/31/11 52/42/11
f 8/31/12 9/33/12 51/43/12
f 9/33/13 10/35/13 50/44/13
f 10/35/14 11/36/14 49/5/14
f 31/45/15 53/46/15 14/47/15
f 53/46/16 54/48/16 15/49/16
f 54/48/17 55/50/17 16/51/17
f 55/50/18 56/6/18 17/52/18
f 24/53/19 3/54/19 7/55/19
f 38/56/20 58/57/20 12/58/20
f 12/58/21 58/57/21 6/59/21
f 6/59/22 58/57/22 57/60/22
f 22/3/9 26/2/9 44/1/9
f 49/5/23 30/4/23 22/3/23
f 26/8/3 32/7/3 56/6/3
f 30/11/4 32/10/4 26/9/4
f 31/14/24 29/13/24 21/12/24
f 22/15/4 46/17/4 40/16/4
f 27/20/25 37/19/25 40/18/25
f 37/22/26 38/8/26 39/21/26
f 23/25/27 28/24/27 45/23/27
f 47/27/4 48/26/4 26/9/4
f 45/41/4 46/17/4 22/15/4
f 22/15/4 40/16/4 39/28/4
f 33/31/9 41/30/9 25/29/9
f 34/33/9 42/32/9 41/30/9
f 35/35/9 43/34/9 42/32/9
f 36/36/9 44/1/9 43/34/9
f 28/24/1 27/20/1 46/37/1
f 24/40/10 23/39/10 48/38/10
f 26/9/4 48/26/4 45/41/4
f 21/12/28 29/13/28 52/42/28
f 33/31/29 52/42/29 51/43/29
f 34/33/30 51/43/30 50/44/30
f 35/35/31 50/44/31 49/5/31
f 41/47/15 53/46/15 31/45/15
f 42/49/16 54/48/16 53/46/16
f 43/51/17 55/50/17 54/48/17
f 44/52/18 56/6/18 55/50/18
f 24/53/32 57/60/32 28/55/32
f 38/56/33 37/58/33 58/57/33
f 37/58/34 27/59/34 58/57/34
f 57/60/35 58/57/35 27/59/35
f 11/36/1 17/1/1 2/3/1
f 11/36/2 2/3/2 49/5/2
f 17/52/3 56/6/3 5/8/3
f 2/15/4 5/9/4 30/11/4
f 4/29/36 1/12/36 31/14/36
f 19/37/6 13/18/6 6/20/6
f 13/61/7 39/21/7 12/22/7
f 20/14/8 18/23/8 3/25/8
f 32/10/4 5/9/4 47/27/4
f 18/41/4 5/9/4 19/17/4
f 13/16/4 2/15/4 39/28/4
f 1/12/1 4/29/1 8/31/1
f 8/31/1 14/30/1 9/33/1
f 9/33/1 15/32/1 10/35/1
f 10/35/1 16/34/1 11/36/1
f 18/23/9 19/37/9 7/24/9
f 47/62/10 20/38/10 24/40/10
f 29/13/11 1/12/11 52/42/11
f 52/42/37 8/31/37 51/43/37
f 51/43/38 9/33/38 50/44/38
f 50/44/39 10/35/39 49/5/39
f 4/63/40 31/45/40 14/47/40
f 14/47/16 53/46/16 15/49/16
f 15/49/17 54/48/17 16/51/17
f 16/51/18 55/50/18 17/52/18
f 57/60/41 24/53/41 7/55/41
f 7/55/42 6/59/42 57/60/42
f 36/36/9 22/3/9 44/1/9
f 36/36/23 49/5/23 22/3/23
f 44/52/3 26/8/3 56/6/3
f 22/15/4 30/11/4 26/9/4
f 25/29/43 31/14/43 21/12/43
f 46/37/25 27/20/25 40/18/25
f 40/61/26 37/22/26 39/21/26
f 48/14/27 23/25/27 45/23/27
f 32/10/4 47/27/4 26/9/4
f 26/9/4 45/41/4 22/15/4
f 30/11/4 22/15/4 39/28/4
f 21/12/9 33/31/9 25/29/9
f 33/31/9 34/33/9 41/30/9
f 34/33/9 35/35/9 42/32/9
f 35/35/9 36/36/9 43/34/9
f 45/23/1 28/24/1 46/37/1
f 47/62/10 24/40/10 48/38/10
f 33/31/28 21/12/28 52/42/28
f 34/33/44 33/31/44 51/43/44
f 35/35/45 34/33/45 50/44/45
f 36/36/46 35/35/46 49/5/46
f 25/63/47 41/47/47 31/45/47
f 41/47/16 42/49/16 53/46/16
f 42/49/17 43/51/17 54/48/17
f 43/51/18 44/52/18 55/50/18
f 23/54/19 24/53/19 28/55/19
f 28/55/48 57/60/48 27/59/48
FIN