# Blender v2.71 (sub 0) OBJ File: 'terrain.blend'
# www.blender.org
mtllib terrain.mtl
o Plane.001
v -9.000000 0.000000 9.000000
v 9.000000 0.000000 9.000000
v -9.000000 0.000000 -9.000000
v 9.000000 0.000000 -9.000000
v -9.000000 1.500000 9.000000
v 9.000000 1.500000 9.000000
v -9.000000 1.500000 -9.000000
v 9.000000 1.500000 -9.000000
v -8.000000 1.000000 -8.000000
v 8.000000 1.500000 8.000000
v -8.000000 1.500000 8.000000
v -8.000000 1.500000 -8.000000
v 8.000000 1.500000 -8.000000
v 8.000000 1.000000 -8.000000
v -8.000000 1.000000 8.000000
v 8.000000 1.000000 8.000000
vt 0.000000 0.500000
vt 0.529412 0.500000
vt 0.529412 1.000000
vt 0.452886 0.893764
vt 0.412447 0.894920
vt 0.098167 0.580662
vt 0.801471 0.672385
vt 0.801471 0.716503
vt 0.301471 0.716504
vt 0.345588 0.716504
vt 0.345588 0.672386
vt 0.845588 0.672385
vt 0.933824 0.672385
vt 0.933824 0.716503
vt 0.433824 0.716504
vt 0.889706 0.672385
vt 0.889706 0.716503
vt 0.389706 0.716504
vt 0.451859 0.914714
vt 0.411420 0.913558
vt 0.078664 0.580802
vt 0.368609 0.902769
vt 0.054339 0.588499
vt 0.055495 0.548060
vt 0.422330 0.924308
vt 0.381891 0.923153
vt 0.049134 0.590397
vt 0.735295 0.888889
vt 0.720589 0.888889
vt 0.720589 0.444444
vt 0.705883 0.888889
vt 0.750001 0.444444
vt 0.750001 0.888889
vt 0.764707 0.444444
vt 0.764707 0.888889
vt 1.000000 0.444444
vt 0.529412 0.444444
vt 0.529412 0.000000
vt 0.000000 1.000000
vt 0.099321 0.540223
vt 0.301471 0.672386
vt 0.845588 0.716503
vt 0.433824 0.672386
vt 0.389706 0.672386
vt 0.077508 0.540363
vt 0.409048 0.901613
vt 0.047979 0.549958
vt 0.735295 0.444444
vt 0.705883 0.444444
vt 1.000000 0.000000
vn 0.000000 -1.000000 0.000000
vn 0.000000 1.000000 0.000000
vn 1.000000 0.000000 0.000000
vn 0.000000 0.000000 1.000000
vn -1.000000 0.000000 0.000000
vn 0.000000 0.000000 -1.000000
usemtl None
s off
f 3/1/1 4/2/1 2/3/1
f 5/4/2 11/5/2 12/6/2
f 4/7/3 8/8/3 6/9/3
f 2/10/4 6/11/4 5/12/4
f 1/13/5 5/14/5 7/15/5
f 3/16/6 7/17/6 8/18/6
f 6/19/2 10/20/2 11/21/2
f 13/22/2 10/23/2 6/24/2
f 7/25/2 12/26/2 13/27/2
f 12/28/4 9/29/4 14/30/4
f 15/30/3 9/29/3 12/31/3
f 16/32/6 15/33/6 11/28/6
f 13/32/5 14/34/5 16/35/5
f 9/36/2 15/37/2 16/38/2
f 1/39/1 3/1/1 2/3/1
f 7/40/2 5/4/2 12/6/2
f 2/41/3 4/7/3 6/9/3
f 1/42/4 2/10/4 5/12/4
f 3/43/5 1/13/5 7/15/5
f 4/44/6 3/16/6 8/18/6
f 5/45/2 6/19/2 11/21/2
f 8/46/2 13/22/2 6/24/2
f 8/47/2 7/25/2 13/27/2
f 13/48/4 12/28/4 14/30/4
f 11/49/3 15/30/3 12/31/3
f 10/48/6 16/32/6 11/28/6
f 10/33/5 13/32/5 16/35/5
f 14/50/2 9/36/2 16/38/2
FIN
